<?xml version="1.0" encoding="UTF-8" standalone="no"?>
<!-- Created with Inkscape (http://www.inkscape.org/) -->

<svg
   width="102.49447mm"
   height="38.869667mm"
   viewBox="0 0 102.49447 38.869667"
   version="1.1"
   id="svg2712"
   sodipodi:docname="logo.svg"
   inkscape:version="1.3.2 (091e20e, 2023-11-25, custom)"
   xmlns:inkscape="http://www.inkscape.org/namespaces/inkscape"
   xmlns:sodipodi="http://sodipodi.sourceforge.net/DTD/sodipodi-0.dtd"
   xmlns="http://www.w3.org/2000/svg"
   xmlns:svg="http://www.w3.org/2000/svg">
  <sodipodi:namedview
     id="namedview2714"
     pagecolor="#ffffff"
     bordercolor="#666666"
     borderopacity="1.0"
     inkscape:pageshadow="2"
     inkscape:pageopacity="0.0"
     inkscape:pagecheckerboard="0"
     inkscape:document-units="mm"
     showgrid="false"
     showguides="true"
     inkscape:guide-bbox="true"
     fit-margin-top="0"
     fit-margin-left="0"
     fit-margin-right="0"
     fit-margin-bottom="0"
     inkscape:zoom="1"
     inkscape:cx="-126"
     inkscape:cy="146"
     inkscape:window-width="3840"
     inkscape:window-height="2054"
     inkscape:window-x="3829"
     inkscape:window-y="-11"
     inkscape:window-maximized="1"
     inkscape:current-layer="layer1"
     inkscape:showpageshadow="2"
     inkscape:deskcolor="#d1d1d1" />
  <defs
     id="defs2709" />
  <g
     inkscape:label="Layer 1"
     inkscape:groupmode="layer"
     id="layer1"
     transform="translate(-43.933003,-81.879917)">
    <path
       id="path9753"
       style="fill:#008080;stroke:none;stroke-width:0.875033;stroke-linecap:square;stroke-linejoin:miter;stroke-miterlimit:4;stroke-dasharray:none"
       d="M 60.012456,117.73803 A 17.56374,17.56374 0 0 0 82.527419,107.24777 17.56374,17.56374 0 0 0 72.037181,84.732792 17.56374,17.56374 0 0 0 49.522202,95.223035 17.56374,17.56374 0 0 0 60.012456,117.73803 Z m 9.827269,-1.15573 -3.786474,-8.38426 6.347573,1.39822 2.186966,4.84223 z m -16.864852,-6.269 -2.144388,-4.74779 8.384255,-3.78649 -1.398205,6.34758 z m 9.141708,-4.12845 0.992687,-4.50533 -1.767638,-3.914147 4.544161,1.001048 3.762208,-1.699282 -0.952793,4.324461 1.763706,3.90503 -4.285229,-0.94425 z m 10.432809,-4.71205 1.398794,-6.347842 4.691297,-2.118763 2.144381,4.747803 z m -13.149934,-8.007618 -2.118758,-4.691304 4.747787,-2.144384 3.718982,8.23405 z" />
    <path
       style="font-size:21.1265px;line-height:1.25;font-family:'Asap Condensed';-inkscape-font-specification:'Asap Condensed, ';fill:#008080;stroke-width:0.528164"
       d="m 93.679084,107.19108 q -2.133777,0 -3.211228,-1.4366 -1.077452,-1.4366 -1.077452,-4.16192 0,-2.746445 1.077452,-4.2253 1.077451,-1.478855 3.211228,-1.478855 0.612668,0 1.183084,0.126759 0.570415,0.105633 0.929566,0.295771 0.35915,0.190139 0.35915,0.380277 0,0.253518 -0.126759,0.654922 -0.126759,0.401403 -0.338024,0.401403 -0.169012,0 -0.697174,-0.169012 -0.507036,-0.169012 -1.352096,-0.169012 -1.246464,0 -1.816879,1.014072 -0.570416,0.992946 -0.570416,3.126725 0,2.11265 0.570416,3.12672 0.570415,0.99294 1.816879,0.99294 0.887313,0 1.436602,-0.21126 0.570415,-0.23239 0.739427,-0.23239 0.211265,0 0.338024,0.4014 0.126759,0.4014 0.126759,0.65492 0,0.19014 -0.380277,0.40141 -0.380277,0.21126 -0.971819,0.35915 -0.591542,0.14788 -1.246463,0.14788 z m 6.312309,0 q -1.98589,0 -3.042215,-1.4366 -1.035199,-1.4366 -1.035199,-4.16192 0,-2.746445 1.035199,-4.2253 1.056325,-1.478855 3.042215,-1.478855 1.964767,0 2.978837,1.478855 1.0352,1.457729 1.0352,4.2253 0,2.74645 -1.01407,4.18305 -1.01408,1.41547 -2.999967,1.41547 z m -0.04225,-1.52111 q 1.1197,0 1.64787,-0.99294 0.54929,-1.01407 0.54929,-3.12672 0,-2.112653 -0.54929,-3.126725 -0.52817,-1.014072 -1.64787,-1.014072 -1.140831,0 -1.668993,1.014072 -0.507036,0.992946 -0.507036,3.126725 0,2.11265 0.507036,3.12672 0.528162,0.99294 1.668993,0.99294 z m 5.51358,1.43661 q -0.46479,0 -0.65492,-0.12676 -0.16902,-0.12676 -0.16902,-0.33803 v -7.457651 q 0,-1.309843 -0.10563,-1.901385 -0.10563,-0.612668 -0.10563,-0.823933 0,-0.232392 0.44366,-0.316898 0.44365,-0.105632 0.78168,-0.105632 0.29577,0 0.4014,0.316897 0.12676,0.316898 0.27464,1.119705 0.52817,-0.739428 1.22534,-1.161958 0.7183,-0.42253 1.56336,-0.42253 0.73943,0 1.37322,0.295771 0.6338,0.295771 1.01408,0.929566 0.4014,0.633795 0.4014,1.668994 v 7.859054 q 0,0.21127 -0.19014,0.33803 -0.16901,0.12676 -0.63379,0.12676 h -0.16902 q -0.46478,0 -0.65492,-0.12676 -0.16901,-0.12676 -0.16901,-0.33803 v -7.499904 q 0,-0.802807 -0.4014,-1.246463 -0.38028,-0.464783 -1.18309,-0.464783 -0.54929,0 -0.99294,0.274644 -0.44366,0.253518 -0.7183,0.612669 -0.25352,0.338024 -0.33803,0.591542 v 7.732295 q 0,0.21127 -0.19014,0.33803 -0.16901,0.12676 -0.63379,0.12676 z m 10.66008,0.0845 q -1.01407,0 -1.77462,-0.69717 -0.73943,-0.7183 -1.16196,-1.96477 -0.4014,-1.26759 -0.4014,-2.91545 0,-2.746448 0.97182,-4.225303 0.97182,-1.499982 2.53518,-1.499982 0.8028,0 1.30984,0.316898 0.52816,0.295771 0.92957,0.760554 v -5.323878 q 0,-0.464783 0.78168,-0.464783 h 0.23239 q 0.8028,0 0.8028,0.464783 v 12.274501 q 0,1.28871 0.10564,1.90138 0.10563,0.59154 0.10563,0.73943 0,0.25352 -0.44366,0.38027 -0.44365,0.12676 -0.78168,0.12676 -0.27464,0 -0.4014,-0.31689 -0.10563,-0.3169 -0.27465,-1.11971 -0.48591,0.73943 -1.16195,1.16196 -0.65492,0.4014 -1.37323,0.4014 z m 0.44366,-1.54223 q 0.52816,0 1.05633,-0.38028 0.52816,-0.38028 0.90844,-1.07745 v -5.788661 q -0.71831,-0.950693 -1.77463,-0.950693 -1.07745,0 -1.60561,1.077452 -0.50704,1.077451 -0.50704,3.105592 0,1.90139 0.46478,2.95771 0.48591,1.05633 1.45773,1.05633 z m 7.77415,1.56336 q -1.30985,0 -2.0704,-0.76056 -0.73943,-0.76055 -0.73943,-2.09152 v -7.901309 q 0,-0.464783 0.80281,-0.464783 h 0.21126 q 0.80281,0 0.80281,0.464783 v 7.626669 q 0,0.78168 0.3169,1.18308 0.33802,0.4014 1.09858,0.4014 0.73942,0 1.28871,-0.4014 0.54929,-0.42253 0.88732,-1.07745 v -7.732299 q 0,-0.464783 0.8028,-0.464783 h 0.21127 q 0.8028,0 0.8028,0.464783 v 7.457659 q 0,1.28871 0.10564,1.90138 0.10563,0.59154 0.10563,0.73943 0,0.25352 -0.44366,0.38027 -0.44365,0.12676 -0.78168,0.12676 -0.27464,0 -0.4014,-0.31689 -0.10563,-0.3169 -0.27465,-1.11971 -0.4859,0.73943 -1.20421,1.16196 -0.7183,0.42253 -1.5211,0.42253 z m 6.70095,-0.10563 q -0.46479,0 -0.65493,-0.12676 -0.16901,-0.12676 -0.16901,-0.33803 V 96.437694 q 0,-0.232391 0.16901,-0.338024 0.19014,-0.126759 0.65493,-0.126759 h 0.16901 q 0.46478,0 0.63379,0.126759 0.19014,0.105633 0.19014,0.338024 v 10.204096 q 0,0.21127 -0.19014,0.33803 -0.16901,0.12676 -0.63379,0.12676 z m 0.0845,-12.612524 q -0.50703,0 -0.7183,-0.126759 -0.21126,-0.126759 -0.21126,-0.338024 v -1.26759 q 0,-0.211265 0.21126,-0.338024 0.21127,-0.126758 0.7183,-0.126758 0.50704,0 0.7183,0.126758 0.21127,0.105633 0.21127,0.338024 v 1.26759 q 0,0.211265 -0.21127,0.338024 -0.21126,0.126759 -0.7183,0.126759 z m 4.90519,12.697024 q -0.44366,0 -0.99295,-0.19014 -0.54929,-0.19013 -0.95069,-0.73942 -0.38028,-0.57042 -0.38028,-1.64787 v -7.077378 h -0.84506 q -0.42253,0 -0.42253,-0.633795 v -0.253518 q 0,-0.633795 0.42253,-0.633795 h 0.84506 l 0.25352,-2.218282 q 0.0634,-0.464783 0.65492,-0.464783 h 0.16901 q 0.42253,0 0.57042,0.126759 0.16901,0.105632 0.16901,0.338024 v 2.218282 h 1.41548 q 0.42253,0 0.42253,0.633795 v 0.253518 q 0,0.633795 -0.42253,0.633795 h -1.41548 v 6.866108 q 0,0.73943 0.14789,1.01408 0.16901,0.25351 0.63379,0.25351 0.38028,0 0.54929,-0.0423 0.19014,-0.0634 0.29577,-0.0634 0.14789,0 0.21127,0.21127 0.0845,0.21126 0.10563,0.46478 0.0211,0.23239 0.0211,0.33802 0,0.21127 -0.25352,0.35915 -0.25352,0.12676 -0.59154,0.19014 -0.33803,0.0634 -0.61267,0.0634 z"
       id="text3919"
       aria-label="conduit" />
  </g>
</svg>
